<svg width="458" height="996" viewBox="0 0 458 996" fill="none" xmlns="http://www.w3.org/2000/svg">
<path d="M233.848 928.333C239.017 928.333 243.977 928.884 248.729 929.75L689.35 501.423L191.713 16H282.98L805 501.423L298.069 973.192C298.226 974.53 298.591 975.789 298.591 977.167C298.591 1004.12 269.614 1026 233.796 1026C197.978 1026 169 1004.12 169 977.167C169 950.212 197.978 928.333 233.796 928.333H233.848Z" fill="url(#paint0_linear_1569_1304)"/>
<path d="M59.4438 96.3133C64.1821 96.3133 68.7291 95.7699 73.0845 94.9162L476.987 517.305L20.8199 996H104.482L583 517.305L118.314 52.076C118.457 50.7566 118.792 49.5148 118.792 48.1566C118.792 21.5754 92.2291 0 59.3962 0C26.5633 0 1.21236e-05 21.5754 1.21236e-05 48.1566C1.21236e-05 74.7379 26.5633 96.3133 59.3962 96.3133H59.4438Z" fill="url(#paint1_linear_1569_1304)"/>
<defs>
<linearGradient id="paint0_linear_1569_1304" x1="587.901" y1="779.432" x2="77.4608" y2="102.146" gradientUnits="userSpaceOnUse">
<stop stop-color="#4188C8"/>
<stop offset="1" stop-color="#A9B82C"/>
</linearGradient>
<linearGradient id="paint1_linear_1569_1304" x1="385.619" y1="768.1" x2="-129.242" y2="133.074" gradientUnits="userSpaceOnUse">
<stop stop-color="#4188C8"/>
<stop offset="1" stop-color="#A9B82C"/>
</linearGradient>
</defs>
</svg>
