<svg width="28" height="26" viewBox="0 0 28 26" fill="none" xmlns="http://www.w3.org/2000/svg">
<path d="M21.182 12.3158L22.946 10.5916C23.562 9.98947 24.346 9.66105 25.2 9.57895V8.21053L16.8 0H2.8C1.246 0 0 1.21789 0 2.73684V21.8947C0 22.6206 0.294999 23.3167 0.820101 23.83C1.3452 24.3432 2.05739 24.6316 2.8 24.6316H11.2V22.0726L11.382 21.8947H2.8V2.73684H12.6V12.3158H21.182ZM15.4 2.05263L23.1 9.57895H15.4V2.05263ZM22.582 14.82L25.438 17.6116L16.856 26H14V23.2084L22.582 14.82ZM27.79 15.3126L26.418 16.6537L23.562 13.8621L24.934 12.5211C25.2 12.2474 25.662 12.2474 25.942 12.5211L27.79 14.3274C28.07 14.6011 28.07 15.0526 27.79 15.3126Z" fill="white"/>
</svg>
