<svg width="32" height="32" viewBox="0 0 32 32" fill="none" xmlns="http://www.w3.org/2000/svg">
<path d="M24 19.9998H8.00002L2.66669 25.3332V3.99984C2.66669 3.64622 2.80716 3.30708 3.05721 3.05703C3.30726 2.80698 3.6464 2.6665 4.00002 2.6665H24C24.3536 2.6665 24.6928 2.80698 24.9428 3.05703C25.1929 3.30708 25.3334 3.64622 25.3334 3.99984V18.6665C25.3334 19.0201 25.1929 19.3593 24.9428 19.6093C24.6928 19.8594 24.3536 19.9998 24 19.9998ZM30.6667 11.9998V30.6665L25.3334 25.3332H10.6667C10.3131 25.3332 9.97393 25.1927 9.72388 24.9426C9.47383 24.6926 9.33335 24.3535 9.33335 23.9998V22.6665H28V10.6665H29.3334C29.687 10.6665 30.0261 10.807 30.2762 11.057C30.5262 11.3071 30.6667 11.6462 30.6667 11.9998ZM10.92 5.33317C9.76002 5.33317 8.82669 5.59984 8.10669 6.11984C7.41335 6.6665 7.06669 7.4265 7.08002 8.47984L7.09335 8.51984H9.66669C9.68002 8.11984 9.80002 7.81317 10.04 7.59984C10.2869 7.3951 10.5993 7.28622 10.92 7.29317C11.3334 7.29317 11.68 7.4265 11.92 7.6665C12.16 7.91984 12.2667 8.2665 12.2667 8.6665C12.2667 9.09317 12.1734 9.45317 11.96 9.75984C11.7734 10.0665 11.4934 10.3332 11.1467 10.5465C10.4667 10.9998 10 11.3998 9.74669 11.7598C9.48002 12.1065 9.33335 12.6665 9.33335 13.3332H12C12 12.9198 12.0534 12.5865 12.1734 12.3465C12.2934 12.1065 12.52 11.8665 12.8534 11.6532C13.4534 11.3332 13.9467 10.9465 14.3334 10.4132C14.72 9.87984 14.92 9.33317 14.92 8.6665C14.92 7.65317 14.56 6.83984 13.84 6.23984C13.1334 5.63984 12.16 5.33317 10.92 5.33317ZM9.33335 14.6665V17.3332H12V14.6665H9.33335ZM17.3334 17.3332H20V14.6665H17.3334V17.3332ZM17.3334 5.33317V13.3332H20V5.33317H17.3334Z" fill="white"/>
</svg>
